<svg xmlns="http://www.w3.org/2000/svg" viewBox="0 0 24 24" width="24" height="24" fill="none">
  <path d="M8.6 2.6 C7.4 3.9 9.8 5.0 8.6 6.3" fill="none" stroke="#7A887F" stroke-width="1.5" stroke-linecap="round" stroke-linejoin="round"/>
  <path d="M12 2.0 C10.8 3.3 13.2 4.4 12 5.7" fill="none" stroke="#7A887F" stroke-width="1.5" stroke-linecap="round" stroke-linejoin="round"/>
  <path d="M15.4 2.6 C14.2 3.9 16.6 5.0 15.4 6.3" fill="none" stroke="#7A887F" stroke-width="1.5" stroke-linecap="round" stroke-linejoin="round"/>
  <path d="M2.6 10.4 H21.4 C21.4 15.8 17.2 20.0 12 20.0 C6.8 20.0 2.6 15.8 2.6 10.4 Z" fill="#FFFFFF" stroke="#26332C" stroke-width="1.45" stroke-linecap="round" stroke-linejoin="round"/>
  <path d="M4.4 12.0 H19.6 C19.0 15.6 15.8 18.4 12 18.4 C8.2 18.4 5.0 15.6 4.4 12.0 Z" fill="#F7E2B4"/>
  <circle cx="10.2" cy="14.4" r="1" fill="#E07C3A"/>
  <circle cx="13.8" cy="15.4" r="0.9" fill="#2E7A4E"/>
</svg>
